<svg width="114" height="114" viewBox="0 0 114 114" fill="none" xmlns="http://www.w3.org/2000/svg">
<g filter="url(#filter0_d_22_2)">
<rect x="4" width="106" height="106" rx="26.5" fill="white"/>
<path d="M76.8391 69.58C77.3474 68.5091 77.601 67.3352 77.58 66.15C77.58 61.5023 76.2476 56.7175 71.9395 53.3904C74.0895 52.7265 75.33 52.4024 77.58 52.43C91.3 52.43 94.73 62.72 94.73 66.15C94.73 69.58 91.3 69.58 91.3 69.58H76.8391Z" fill="url(#paint0_linear_22_2)"/>
<path d="M79.295 49C77.0208 49 74.8397 48.0966 73.2316 46.4884C71.6235 44.8803 70.72 42.6992 70.72 40.425C70.72 38.1508 71.6235 35.9697 73.2316 34.3616C74.8397 32.7534 77.0208 31.85 79.295 31.85C81.5693 31.85 83.7503 32.7534 85.3585 34.3616C86.9666 35.9697 87.87 38.1508 87.87 40.425C87.87 42.6992 86.9666 44.8803 85.3585 46.4884C83.7503 48.0966 81.5693 49 79.295 49Z" fill="url(#paint1_linear_22_2)"/>
<path d="M57 45C59.7291 45 62.3464 43.9159 64.2762 41.9861C66.2059 40.0564 67.29 37.4391 67.29 34.71C67.29 31.9809 66.2059 29.3636 64.2762 27.4339C62.3464 25.5041 59.7291 24.42 57 24.42C54.2709 24.42 51.6536 25.5041 49.7239 27.4339C47.7941 29.3636 46.71 31.9809 46.71 34.71C46.71 37.4391 47.7941 40.0564 49.7239 41.9861C51.6536 43.9159 54.2709 45 57 45Z" fill="url(#paint2_linear_22_2)"/>
<path d="M43.28 69.58C43.28 69.58 39.85 69.58 39.85 66.15C39.85 62.72 43.28 49.43 57 49.43C70.72 49.43 74.15 62.72 74.15 66.15C74.15 69.58 70.72 69.58 70.72 69.58H43.28Z" fill="url(#paint3_linear_22_2)"/>
<path fill-rule="evenodd" clip-rule="evenodd" d="M40.7685 46.4884C39.1603 48.0966 36.9793 49 34.705 49C32.4308 49 30.2497 48.0966 28.6416 46.4884C27.0335 44.8803 26.13 42.6992 26.13 40.425C26.13 38.1508 27.0335 35.9697 28.6416 34.3616C30.2497 32.7534 32.4308 31.85 34.705 31.85C36.9793 31.85 39.1603 32.7534 40.7685 34.3616C42.3766 35.9697 43.28 38.1508 43.28 40.425C43.28 42.6992 42.3766 44.8803 40.7685 46.4884Z" fill="url(#paint4_linear_22_2)"/>
<path d="M37.1609 69.58C36.6527 68.5091 36.3991 67.3352 36.42 66.15C36.42 61.5023 37.7524 56.7175 42.0605 53.3904C39.9105 52.7265 38.67 52.4024 36.42 52.43C22.7 52.43 19.27 62.72 19.27 66.15C19.27 69.58 22.7 69.58 22.7 69.58H37.1609Z" fill="url(#paint5_linear_22_2)"/>
<path d="M55.104 55.592C55.2853 55.4853 55.5573 55.384 55.92 55.288C56.2933 55.192 56.6667 55.144 57.04 55.144C57.5733 55.144 58.0427 55.224 58.448 55.384C58.864 55.5333 59.1307 55.7733 59.248 56.104C59.44 56.6587 59.648 57.304 59.872 58.04C60.096 58.776 60.32 59.5387 60.544 60.328C60.768 61.1067 60.9867 61.88 61.2 62.648C61.4133 63.4053 61.6 64.0773 61.76 64.664C61.632 64.8133 61.44 64.9307 61.184 65.016C60.928 65.112 60.624 65.16 60.272 65.16C60.016 65.16 59.7973 65.1387 59.616 65.096C59.4453 65.0533 59.3013 64.9893 59.184 64.904C59.0773 64.8187 58.9867 64.7067 58.912 64.568C58.848 64.4293 58.7893 64.2693 58.736 64.088L58.448 62.984H55.552C55.4667 63.304 55.3813 63.6347 55.296 63.976C55.2107 64.3173 55.1253 64.648 55.04 64.968C54.8907 65.0213 54.7307 65.064 54.56 65.096C54.4 65.1387 54.2027 65.16 53.968 65.16C53.424 65.16 53.0187 65.0693 52.752 64.888C52.496 64.696 52.368 64.4347 52.368 64.104C52.368 63.9547 52.3893 63.8053 52.432 63.656C52.4747 63.5067 52.5227 63.3307 52.576 63.128C52.6507 62.84 52.752 62.4827 52.88 62.056C53.0187 61.6293 53.168 61.1707 53.328 60.68C53.488 60.1787 53.6587 59.6667 53.84 59.144C54.0213 58.6213 54.192 58.1307 54.352 57.672C54.512 57.2027 54.656 56.7867 54.784 56.424C54.9227 56.0613 55.0293 55.784 55.104 55.592ZM57.024 57.656C56.8747 58.104 56.704 58.6053 56.512 59.16C56.3307 59.704 56.1653 60.2587 56.016 60.824H58C57.8507 60.248 57.696 59.688 57.536 59.144C57.3867 58.5893 57.248 58.0933 57.12 57.656H57.024Z" fill="white"/>
<path d="M28.106 73.804C27.1307 73.804 26.3833 74.1017 25.864 74.697C25.3447 75.2923 25.085 76.1347 25.085 77.224C25.085 78.326 25.37 79.1747 25.94 79.77C26.5227 80.3653 27.3017 80.663 28.277 80.663C28.7963 80.663 29.2333 80.5933 29.588 80.454C29.9553 80.3147 30.3037 80.1563 30.633 79.979C30.8483 80.1563 31.013 80.3717 31.127 80.625C31.2537 80.8657 31.317 81.1507 31.317 81.48C31.317 81.9993 31.0257 82.4427 30.443 82.81C29.873 83.1647 28.999 83.342 27.821 83.342C26.9723 83.342 26.1743 83.2217 25.427 82.981C24.6797 82.7403 24.0273 82.373 23.47 81.879C22.9127 81.3723 22.4693 80.739 22.14 79.979C21.8233 79.2063 21.665 78.288 21.665 77.224C21.665 76.236 21.817 75.3683 22.121 74.621C22.4377 73.861 22.862 73.2213 23.394 72.702C23.9387 72.1827 24.572 71.79 25.294 71.524C26.016 71.258 26.7887 71.125 27.612 71.125C28.7773 71.125 29.6767 71.315 30.31 71.695C30.956 72.075 31.279 72.5627 31.279 73.158C31.279 73.4873 31.1967 73.7723 31.032 74.013C30.8673 74.2537 30.6773 74.4437 30.462 74.583C30.1327 74.3677 29.778 74.184 29.398 74.032C29.0307 73.88 28.6 73.804 28.106 73.804ZM42.1583 78.383C42.1583 79.1683 42.0379 79.8713 41.7973 80.492C41.5566 81.1 41.2146 81.613 40.7713 82.031C40.3406 82.449 39.8213 82.7657 39.2133 82.981C38.6053 83.1963 37.9276 83.304 37.1803 83.304C36.4329 83.304 35.7553 83.19 35.1473 82.962C34.5393 82.734 34.0136 82.411 33.5703 81.993C33.1396 81.5623 32.8039 81.043 32.5633 80.435C32.3226 79.827 32.2023 79.143 32.2023 78.383C32.2023 77.6357 32.3226 76.958 32.5633 76.35C32.8039 75.742 33.1396 75.229 33.5703 74.811C34.0136 74.3803 34.5393 74.051 35.1473 73.823C35.7553 73.595 36.4329 73.481 37.1803 73.481C37.9276 73.481 38.6053 73.6013 39.2133 73.842C39.8213 74.07 40.3406 74.3993 40.7713 74.83C41.2146 75.248 41.5566 75.761 41.7973 76.369C42.0379 76.977 42.1583 77.6483 42.1583 78.383ZM35.5083 78.383C35.5083 79.1557 35.6539 79.751 35.9453 80.169C36.2493 80.5743 36.6673 80.777 37.1993 80.777C37.7313 80.777 38.1366 80.568 38.4153 80.15C38.7066 79.732 38.8523 79.143 38.8523 78.383C38.8523 77.623 38.7066 77.0403 38.4153 76.635C38.1239 76.217 37.7123 76.008 37.1803 76.008C36.6483 76.008 36.2366 76.217 35.9453 76.635C35.6539 77.0403 35.5083 77.623 35.5083 78.383ZM49.5861 77.148C49.5861 76.7553 49.4721 76.4703 49.2441 76.293C49.0288 76.103 48.7311 76.008 48.3511 76.008C48.0978 76.008 47.8444 76.0397 47.5911 76.103C47.3504 76.1663 47.1414 76.2613 46.9641 76.388V82.981C46.8374 83.019 46.6348 83.057 46.3561 83.095C46.0901 83.133 45.8114 83.152 45.5201 83.152C45.2414 83.152 44.9881 83.133 44.7601 83.095C44.5448 83.057 44.3611 82.981 44.2091 82.867C44.0571 82.753 43.9368 82.601 43.8481 82.411C43.7721 82.2083 43.7341 81.9487 43.7341 81.632V75.932C43.7341 75.59 43.8038 75.3113 43.9431 75.096C44.0951 74.8807 44.2978 74.6843 44.5511 74.507C44.9818 74.203 45.5201 73.956 46.1661 73.766C46.8248 73.576 47.5531 73.481 48.3511 73.481C49.7824 73.481 50.8844 73.7977 51.6571 74.431C52.4298 75.0517 52.8161 75.9193 52.8161 77.034V82.981C52.6894 83.019 52.4868 83.057 52.2081 83.095C51.9421 83.133 51.6634 83.152 51.3721 83.152C51.0934 83.152 50.8401 83.133 50.6121 83.095C50.3968 83.057 50.2131 82.981 50.0611 82.867C49.9091 82.753 49.7888 82.601 49.7001 82.411C49.6241 82.2083 49.5861 81.9487 49.5861 81.632V77.148ZM60.6632 77.148C60.6632 76.7553 60.5492 76.4703 60.3212 76.293C60.1059 76.103 59.8082 76.008 59.4282 76.008C59.1749 76.008 58.9216 76.0397 58.6682 76.103C58.4276 76.1663 58.2186 76.2613 58.0412 76.388V82.981C57.9146 83.019 57.7119 83.057 57.4332 83.095C57.1672 83.133 56.8886 83.152 56.5972 83.152C56.3186 83.152 56.0652 83.133 55.8372 83.095C55.6219 83.057 55.4382 82.981 55.2862 82.867C55.1342 82.753 55.0139 82.601 54.9252 82.411C54.8492 82.2083 54.8112 81.9487 54.8112 81.632V75.932C54.8112 75.59 54.8809 75.3113 55.0202 75.096C55.1722 74.8807 55.3749 74.6843 55.6282 74.507C56.0589 74.203 56.5972 73.956 57.2432 73.766C57.9019 73.576 58.6302 73.481 59.4282 73.481C60.8596 73.481 61.9616 73.7977 62.7342 74.431C63.5069 75.0517 63.8932 75.9193 63.8932 77.034V82.981C63.7666 83.019 63.5639 83.057 63.2852 83.095C63.0192 83.133 62.7406 83.152 62.4492 83.152C62.1706 83.152 61.9172 83.133 61.6892 83.095C61.4739 83.057 61.2902 82.981 61.1382 82.867C60.9862 82.753 60.8659 82.601 60.7772 82.411C60.7012 82.2083 60.6632 81.9487 60.6632 81.632V77.148ZM70.7714 83.304C70.0241 83.304 69.3274 83.2027 68.6814 83C68.0481 82.7847 67.4907 82.468 67.0094 82.05C66.5407 81.632 66.1671 81.1063 65.8884 80.473C65.6224 79.8397 65.4894 79.0987 65.4894 78.25C65.4894 77.414 65.6224 76.6983 65.8884 76.103C66.1671 75.495 66.5281 75.001 66.9714 74.621C67.4147 74.2283 67.9214 73.9433 68.4914 73.766C69.0614 73.576 69.6441 73.481 70.2394 73.481C70.9107 73.481 71.5187 73.5823 72.0634 73.785C72.6207 73.9877 73.0957 74.2663 73.4884 74.621C73.8937 74.9757 74.2041 75.4 74.4194 75.894C74.6474 76.388 74.7614 76.9263 74.7614 77.509C74.7614 77.9397 74.6411 78.269 74.4004 78.497C74.1597 78.725 73.8241 78.8707 73.3934 78.934L68.7004 79.637C68.8397 80.055 69.1247 80.3717 69.5554 80.587C69.9861 80.7897 70.4801 80.891 71.0374 80.891C71.5567 80.891 72.0444 80.8277 72.5004 80.701C72.9691 80.5617 73.3491 80.4033 73.6404 80.226C73.8431 80.3527 74.0141 80.53 74.1534 80.758C74.2927 80.986 74.3624 81.2267 74.3624 81.48C74.3624 82.05 74.0964 82.4743 73.5644 82.753C73.1591 82.9683 72.7031 83.114 72.1964 83.19C71.6897 83.266 71.2147 83.304 70.7714 83.304ZM70.2394 75.837C69.9354 75.837 69.6694 75.8877 69.4414 75.989C69.2261 76.0903 69.0487 76.2233 68.9094 76.388C68.7701 76.54 68.6624 76.7173 68.5864 76.92C68.5231 77.11 68.4851 77.3063 68.4724 77.509L71.7214 76.977C71.6834 76.7237 71.5441 76.4703 71.3034 76.217C71.0627 75.9637 70.7081 75.837 70.2394 75.837ZM81.5221 76.027C81.2055 76.027 80.9015 76.0777 80.6101 76.179C80.3315 76.2803 80.0845 76.4323 79.8691 76.635C79.6665 76.825 79.5018 77.0657 79.3751 77.357C79.2485 77.6483 79.1851 77.9903 79.1851 78.383C79.1851 79.1683 79.4068 79.7573 79.8501 80.15C80.3061 80.5427 80.8571 80.739 81.5031 80.739C81.8831 80.739 82.2125 80.6947 82.4911 80.606C82.7698 80.5173 83.0168 80.4223 83.2321 80.321C83.4855 80.4983 83.6755 80.6947 83.8021 80.91C83.9288 81.1127 83.9921 81.3597 83.9921 81.651C83.9921 82.1703 83.7451 82.5757 83.2511 82.867C82.7571 83.1457 82.0731 83.285 81.1991 83.285C80.4011 83.285 79.6791 83.171 79.0331 82.943C78.3871 82.7023 77.8298 82.373 77.3611 81.955C76.9051 81.5243 76.5505 81.0113 76.2971 80.416C76.0438 79.8207 75.9171 79.162 75.9171 78.44C75.9171 77.604 76.0501 76.8757 76.3161 76.255C76.5948 75.6217 76.9685 75.1023 77.4371 74.697C77.9058 74.2917 78.4441 73.9877 79.0521 73.785C79.6728 73.5823 80.3251 73.481 81.0091 73.481C81.9211 73.481 82.6241 73.6457 83.1181 73.975C83.6121 74.3043 83.8591 74.7287 83.8591 75.248C83.8591 75.4887 83.8021 75.7167 83.6881 75.932C83.5741 76.1347 83.4411 76.312 83.2891 76.464C83.0738 76.3627 82.8141 76.2677 82.5101 76.179C82.2061 76.0777 81.8768 76.027 81.5221 76.027ZM88.842 79.827C88.842 80.1563 88.9434 80.3907 89.146 80.53C89.3614 80.6693 89.659 80.739 90.039 80.739C90.229 80.739 90.4254 80.7263 90.628 80.701C90.8307 80.663 91.008 80.6187 91.16 80.568C91.274 80.7073 91.369 80.8657 91.445 81.043C91.5337 81.2077 91.578 81.4103 91.578 81.651C91.578 82.1323 91.3944 82.525 91.027 82.829C90.6724 83.133 90.039 83.285 89.127 83.285C88.0124 83.285 87.151 83.0317 86.543 82.525C85.9477 82.0183 85.65 81.195 85.65 80.055V71.923C85.7894 71.885 85.9857 71.847 86.239 71.809C86.505 71.7583 86.7837 71.733 87.075 71.733C87.6324 71.733 88.063 71.8343 88.367 72.037C88.6837 72.227 88.842 72.6387 88.842 73.272V74.488H91.331C91.407 74.6273 91.4767 74.8047 91.54 75.02C91.616 75.2227 91.654 75.4507 91.654 75.704C91.654 76.1473 91.5527 76.4703 91.35 76.673C91.16 76.863 90.9004 76.958 90.571 76.958H88.842V79.827Z" fill="#FDB10C"/>
</g>
<defs>
<filter id="filter0_d_22_2" x="0" y="0" width="114" height="114" filterUnits="userSpaceOnUse" color-interpolation-filters="sRGB">
<feFlood flood-opacity="0" result="BackgroundImageFix"/>
<feColorMatrix in="SourceAlpha" type="matrix" values="0 0 0 0 0 0 0 0 0 0 0 0 0 0 0 0 0 0 127 0" result="hardAlpha"/>
<feOffset dy="4"/>
<feGaussianBlur stdDeviation="2"/>
<feComposite in2="hardAlpha" operator="out"/>
<feColorMatrix type="matrix" values="0 0 0 0 0 0 0 0 0 0 0 0 0 0 0 0 0 0 0.25 0"/>
<feBlend mode="normal" in2="BackgroundImageFix" result="effect1_dropShadow_22_2"/>
<feBlend mode="normal" in="SourceGraphic" in2="effect1_dropShadow_22_2" result="shape"/>
</filter>
<linearGradient id="paint0_linear_22_2" x1="83.5" y1="70" x2="83.5" y2="25.5" gradientUnits="userSpaceOnUse">
<stop stop-color="#38DE4F"/>
<stop offset="1" stop-color="#60E572"/>
</linearGradient>
<linearGradient id="paint1_linear_22_2" x1="83.5" y1="70" x2="83.5" y2="25.5" gradientUnits="userSpaceOnUse">
<stop stop-color="#38DE4F"/>
<stop offset="1" stop-color="#60E572"/>
</linearGradient>
<linearGradient id="paint2_linear_22_2" x1="57" y1="69.58" x2="57" y2="24.42" gradientUnits="userSpaceOnUse">
<stop stop-color="#246BFD"/>
<stop offset="1" stop-color="#5089FD"/>
</linearGradient>
<linearGradient id="paint3_linear_22_2" x1="57" y1="69.58" x2="57" y2="24.42" gradientUnits="userSpaceOnUse">
<stop stop-color="#246BFD"/>
<stop offset="1" stop-color="#5089FD"/>
</linearGradient>
<linearGradient id="paint4_linear_22_2" x1="35" y1="67.5" x2="35.5" y2="24" gradientUnits="userSpaceOnUse">
<stop stop-color="#FFD300"/>
<stop offset="1" stop-color="#FFED99"/>
</linearGradient>
<linearGradient id="paint5_linear_22_2" x1="35" y1="67.5" x2="35.5" y2="24" gradientUnits="userSpaceOnUse">
<stop stop-color="#FFD300"/>
<stop offset="1" stop-color="#FFED99"/>
</linearGradient>
</defs>
</svg>
